<svg xmlns="http://www.w3.org/2000/svg" width="1024" height="1024" viewBox="0 0 1024 1024" version="1.1"><path d="M 387 69.944 C 165.779 70.553, 165.489 70.557, 156.500 72.677 C 103.121 85.267, 63.917 125.754, 51.706 180.898 C 49.208 192.180, 47.596 768.618, 49.996 792.500 C 56.297 855.204, 98.858 903.233, 160 916.637 C 173.355 919.564, 813.509 919.545, 827.500 916.616 C 888.520 903.844, 931.487 853.965, 937.002 789.500 C 938.606 770.762, 937.971 511.552, 936.313 507.852 C 933.930 502.533, 910.839 485.233, 903.774 483.474 C 901.048 482.795, 901.048 482.795, 900.720 639.148 C 900.426 779.623, 900.227 796.161, 898.763 802.006 C 888.503 842.965, 860.148 871.022, 820.939 879.012 C 807.738 881.703, 185.077 882.188, 169.777 879.520 C 135.818 873.598, 104.447 846.486, 92.810 813 C 87.255 797.015, 87.625 811.440, 87.279 597.246 C 86.961 399.993, 86.961 399.993, 80.098 389.746 C 45.763 338.491, 46.189 277.873, 81.145 240.505 C 87 234.245, 87 234.245, 87 216.754 C 87 162.181, 115.631 122.872, 164.387 110.504 C 193.926 103.010, 598.995 107.433, 599.070 115.250 C 599.203 128.911, 613.999 145, 626.431 145 C 632.254 145, 632.254 145, 651.877 164.210 C 683.972 195.630, 682.236 193.490, 678.481 197.018 C 670.490 204.525, 666.505 215.481, 665.472 232.785 C 664.579 247.755, 633.295 252.454, 630.361 238.059 C 627.526 224.153, 616.223 209.743, 602.077 202 C 598.318 199.942, 592.966 195.667, 589.091 191.625 C 572.479 174.299, 551.536 165.582, 523.500 164.325 C 444.259 160.771, 397.558 211.299, 406.896 290.481 C 408.060 300.354, 408.060 300.354, 404.598 303.927 C 387.452 321.619, 394.272 370.619, 416.508 389.500 C 417.155 390.050, 418.269 392.975, 418.981 396 C 422.123 409.334, 431.233 431.627, 437.727 441.872 C 443.551 451.062, 440.854 466.014, 432.500 470.848 C 403.114 487.849, 380.409 529.811, 374.087 578.799 C 372.500 591.098, 372.500 591.098, 365.757 593.450 C 349.338 599.177, 334.340 613.228, 326.635 630.101 C 319.784 645.106, 314.356 674.988, 317.017 683.050 C 318.179 686.571, 318.115 689.397, 316.562 703.321 C 310.050 761.704, 318.722 784.823, 348.531 788.547 C 352.762 789.076, 354.774 789.928, 356.967 792.121 C 367.326 802.480, 385.805 789.059, 381.044 774.634 C 378.096 765.702, 359.331 761.761, 356.379 769.455 C 353.917 775.871, 338.468 765.798, 334.729 755.338 C 330.716 744.116, 333.411 688.425, 338.214 683.284 C 339.796 681.592, 340.739 678.046, 342.203 668.284 C 353.128 595.474, 417.297 595.539, 427.989 668.371 C 429.386 677.888, 430.388 681.797, 431.835 683.371 C 433.360 685.031, 434.038 688.035, 434.911 697 C 435.527 703.325, 436.466 712.550, 436.997 717.500 C 440.886 753.693, 427.770 782.679, 413.818 768.727 C 402.089 756.998, 383.593 773.709, 391.462 788.926 C 394.621 795.035, 410.822 797.453, 415.413 792.500 C 416.943 790.849, 419.559 789.655, 423.115 788.985 C 452.505 783.446, 461.118 758.672, 454.155 699.703 C 452.665 687.091, 452.613 684.736, 453.799 683.752 C 456.143 681.807, 452.815 656.948, 448.277 642.500 C 440.248 616.942, 422.810 598.010, 402.614 592.924 C 390.439 589.859, 404.645 534.937, 423.869 510.745 C 432.847 499.448, 432.184 499.370, 435.453 512.104 C 444.810 548.563, 471.481 618.171, 499.210 678.500 C 505.645 692.500, 505.645 692.500, 501.279 705.500 C 482.829 760.445, 478.365 863, 494.424 863 C 503 863, 503 863, 503.004 815.250 C 503.010 748.831, 502.742 750.161, 526.479 698.500 C 556.330 633.530, 588.166 551.421, 601.034 506.209 C 606.988 485.289, 636.391 534.940, 642.439 576.128 C 645.172 594.740, 645.028 595.456, 638.250 596.946 C 582.008 609.308, 584.796 696.671, 641.736 706.192 C 700.016 715.937, 726.510 627.618, 672.917 602.253 C 667.123 599.510, 667.100 599.483, 667.031 595 C 666.302 548.003, 636.729 489.511, 604.337 471 C 595.605 466.010, 591.970 450.149, 597.461 441 C 605.062 428.332, 611.076 413.786, 616.224 395.611 C 619.179 385.182, 619.771 383.952, 622.258 383.073 C 635.622 378.351, 644.416 358.649, 644.470 333.311 C 644.500 319.122, 644.500 319.122, 654.752 318.811 C 665.004 318.500, 665.004 318.500, 665.002 339.250 C 665 360, 665 360, 660.111 360 C 655.251 360, 655.218 360.022, 654.532 363.750 C 654.153 365.813, 652.534 370.087, 650.936 373.250 C 648.030 379, 648.030 379, 656.386 379 C 664.742 379, 664.742 379, 665.444 386.133 C 666.268 394.496, 669.016 403.820, 672.371 409.639 C 676.338 416.517, 657.432 434.593, 646.738 434.146 C 619.540 433.011, 617.054 472.893, 644.091 476.599 C 657.633 478.455, 668.724 467.708, 667.848 453.580 C 667.350 445.541, 686.717 425.288, 691.654 428.686 C 699.143 433.841, 704.976 435.403, 718.250 435.810 C 732.009 436.232, 738.965 467.463, 727.055 475.345 C 712.741 484.818, 715.628 508.977, 731.648 513.776 C 753.855 520.430, 770.247 494.773, 754.373 478.206 C 740.299 463.517, 748.858 436, 767.500 436 C 785.375 436, 796.078 483.475, 780.689 494.501 C 759.603 509.609, 777.862 542.413, 803.142 534.839 C 821.683 529.284, 824.396 498.021, 806.821 492.443 C 790.821 487.365, 807.364 436, 825 436 C 844.644 436, 856.609 466.360, 841.858 478.773 C 830.870 488.018, 833.448 507.086, 846.500 513.110 C 868.538 523.281, 885.978 494.358, 867.559 478.186 C 856.523 468.496, 863.125 436.275, 876.250 435.769 C 889.124 435.272, 892.965 434.203, 901.706 428.686 C 907.544 425, 929 445.648, 929 454.952 C 929 473.086, 949.825 483.555, 964.253 472.674 C 981.640 459.562, 972.418 433.217, 950.815 434.283 C 939.504 434.841, 919.217 415.302, 923.460 407.936 C 927.542 400.850, 930 391.626, 930 383.395 C 930 374.608, 955.648 371.241, 959.573 379.512 C 968.546 398.422, 997.728 392.858, 1000.630 371.683 C 1003.550 350.381, 976.030 337.845, 962.429 354.282 C 951.366 367.651, 930 357.195, 930 338.410 C 930 321.933, 947.870 309.699, 956.163 320.500 C 969.752 338.199, 989.466 338.129, 998.072 320.352 C 1009.248 297.264, 974.050 276.430, 958.774 297.092 C 948.917 310.424, 930 299.845, 930 281 C 930 262.558, 952.077 250.721, 960.115 264.853 C 968.996 280.467, 994.643 276.633, 1000.564 258.806 C 1009.328 232.421, 973.398 214.142, 959.751 238.042 C 953.567 248.873, 931.338 243.282, 930.758 230.750 C 930.199 218.677, 928.376 212.188, 923.449 204.744 C 919.639 198.986, 929.732 187.980, 938.087 188.782 C 955.632 190.468, 967.109 169.641, 956.142 156.018 C 943.234 139.984, 919.540 148.476, 919.510 169.147 C 919.493 180.305, 909.934 189.367, 903.209 184.600 C 895.662 179.251, 887.963 176.915, 875.750 176.269 C 866.796 175.795, 865.001 175.433, 865.005 174.100 C 865.007 173.220, 864.813 164.729, 864.572 155.230 C 864.134 137.961, 864.134 137.961, 868.540 133.618 C 883.479 118.889, 870.879 95.254, 850.856 100.447 C 836.548 104.159, 831.951 123.163, 842.877 133.437 C 857.489 147.179, 845.722 176, 825.500 176 C 805 176, 805 176, 805 148 C 805 127.486, 805.309 120, 806.156 120 C 822.843 120, 822.409 85.186, 805.621 77.058 C 779.711 64.516, 758.404 102.646, 782.575 118.298 C 797.714 128.102, 785.615 176, 768 176 C 749.434 176, 739.495 145.684, 753.993 133.274 C 768.039 121.251, 758.111 98.665, 739.460 100.212 C 723.603 101.527, 716.877 123.146, 729.119 133.447 C 737.953 140.880, 732.672 176.999, 722.750 177.012 C 713.681 177.024, 705.719 178.475, 701.068 180.963 C 698.835 182.159, 697.478 180.965, 671.072 154.572 C 643.415 126.929, 643.415 126.929, 639.740 128.464 C 619.672 136.849, 605.879 106.755, 625.259 96.868 C 637.054 90.850, 650 98.948, 650 112.344 C 650 129.515, 672.683 140.608, 690.500 132.150 C 714.563 120.726, 717.497 87.338, 695.568 74.487 C 686.274 69.040, 690.874 69.108, 387 69.944 M 669.017 86.851 C 659.454 91.980, 657.783 104.287, 665.642 111.698 C 673.280 118.902, 685.101 116.602, 690.023 106.956 C 696.713 93.841, 682.086 79.842, 669.017 86.851 M 168 130.474 C 129.637 141.657, 106 171.937, 106 209.901 C 106 219.886, 106 219.886, 113.656 216.397 C 150.575 199.573, 193.797 207.165, 224.075 235.794 C 230.110 241.500, 230.110 241.500, 236.509 235.344 C 281.664 191.906, 352.662 201.109, 387.622 254.931 C 390.500 259.363, 390.500 259.363, 391.272 252.431 C 401.920 156.883, 525.273 113.020, 599.054 178.548 C 608.386 186.836, 618.993 183.256, 619.004 171.816 C 619.008 167.192, 589.868 136.198, 581 131.396 C 576.445 128.929, 176.364 128.036, 168 130.474 M 545.850 220.748 C 511.565 244.469, 467.221 255.994, 438.905 248.544 C 436.309 247.861, 436.309 247.861, 435.683 256.685 C 435.339 261.538, 433.469 276.697, 431.528 290.371 C 429.588 304.045, 428 317.206, 428 319.616 C 428 324, 428 324, 423.622 324 C 416.929 324, 416.670 324.743, 417.967 340.193 C 419.591 359.537, 423.449 370.471, 430.021 374.354 C 432.395 375.755, 433.379 377.505, 435.055 383.298 C 469.250 501.515, 574.705 496.888, 601.388 376 C 610.836 333.193, 610.295 304.009, 599.495 274 C 595.879 263.952, 595.689 262.790, 595.078 247 C 594.272 226.159, 591.407 220.608, 578.500 214.880 C 566.772 209.675, 560.130 210.869, 545.850 220.748 M 146 226.629 C 80.356 234.738, 53.242 304.951, 90.443 370.500 C 108.277 401.924, 159.632 452.939, 220.588 499.784 C 231.878 508.460, 229.289 509.233, 253 490.106 C 325.697 431.465, 384.406 365.364, 380.537 346.513 C 377.321 330.843, 378.115 319.203, 383.018 310.151 C 389.596 298.006, 378.012 266.810, 360.820 250.369 C 322.580 213.799, 269.415 219.464, 235.723 263.698 C 230.240 270.896, 230.240 270.896, 223.729 262.698 C 203.018 236.624, 174.019 223.168, 146 226.629 M 974.807 246.750 C 972.166 249.826, 971.881 250.908, 973.103 253.229 C 976.005 258.739, 982.708 258.171, 984.461 252.267 C 985.879 247.491, 978.025 243.003, 974.807 246.750 M 752.579 274.261 C 747.123 289.793, 738.968 312.850, 734.458 325.500 C 717.473 373.143, 717.544 368, 733.871 368 C 745.805 368, 745.805 368, 747.962 360.750 C 753.006 343.800, 750.414 345.395, 774.069 344.685 C 799.482 343.923, 797.273 343.053, 801.150 355.347 C 805.411 368.859, 804.293 368, 817.622 368 C 831.742 368, 831.477 370.634, 820.593 338.399 C 812.885 315.567, 792.752 256.945, 789.976 249.250 C 783.802 232.130, 762.337 246.486, 752.579 274.261 M 845.572 247.673 C 837.508 268.689, 847.884 367, 858.167 367 C 876.751 367, 876.454 246.668, 857.869 246.219 C 847.598 245.971, 846.160 246.141, 845.572 247.673 M 630.666 279.250 C 630.324 287.637, 629.757 295.738, 629.405 297.250 C 628.767 300, 628.767 300, 646.883 300 C 665 300, 665 300, 665 282 C 665 255.677, 631.735 253.013, 630.666 279.250 M 774.747 277.663 C 772.961 280.789, 760.661 321.995, 761.319 322.652 C 762.582 323.916, 791.132 321.787, 790.626 320.467 C 790.354 319.760, 787.159 310.032, 783.525 298.849 C 777.136 279.192, 775.765 275.882, 774.747 277.663 M 206.526 292.950 C 205.321 295.280, 205 299.758, 205 314.250 C 205 337.092, 207.227 335, 182.911 335 C 156.382 335, 158.590 332.821, 158.193 359.398 C 157.782 386.913, 155.975 385, 182.383 385 C 207.164 385, 205 382.944, 205 406.495 C 205 432.312, 203.634 431, 230.516 431 C 256.825 431, 255 432.745, 255 407.588 C 255 383.040, 253.091 385, 277.001 385 C 302.551 385, 301.362 385.979, 301.855 364.550 C 302.549 334.432, 303.025 335, 277.117 335 C 252.892 335, 255 337.082, 255 313.151 C 255 287.737, 257.447 290, 229.969 290 C 208.051 290, 208.051 290, 206.526 292.950 M 975.185 363.684 C 973.002 364.557, 971.855 368.857, 973.150 371.315 C 976.324 377.347, 984 375.709, 984 369 C 984 364.271, 979.899 361.798, 975.185 363.684 M 385.563 380.820 C 370.580 406.244, 333.324 447.015, 298.562 476.031 C 290.346 482.889, 278.871 492.487, 273.062 497.359 C 243.738 521.956, 234.644 527.399, 226.027 525.506 C 216.762 523.471, 159.173 475.145, 122.750 438.840 C 107.898 424.036, 94.613 733.739, 107.478 794.894 C 113.445 823.262, 132.982 846.502, 159.500 856.776 C 168.217 860.153, 170 860.350, 170 857.932 C 170 853.200, 214.511 633.943, 217.999 621.490 C 226.308 591.831, 243.710 567.433, 267.944 551.468 C 278.292 544.651, 279.610 544.100, 349.500 517.403 C 367.535 510.513, 381.260 504.712, 382.318 503.530 C 383.318 502.414, 386.739 497.900, 389.921 493.500 C 397.983 482.351, 406.690 473.178, 417.104 464.862 C 428.470 455.786, 428.810 453.647, 421.040 440.129 C 415.829 431.063, 410.685 418.578, 406.976 406 C 405.760 401.875, 403.564 396.925, 402.096 395 C 398.811 390.692, 393.837 382.736, 391.357 377.820 C 389.500 374.141, 389.500 374.141, 385.563 380.820 M 568.500 472.171 C 541.053 495.744, 497.654 496.350, 463.918 473.630 C 456.960 468.945, 457.403 468.685, 455.973 478.297 C 454.577 487.680, 454.758 488.284, 462.309 499.437 C 495.409 548.325, 550.755 543.560, 578.929 489.397 C 586.053 475.701, 578.642 463.461, 568.500 472.171 M 734.333 490.615 C 731.075 495.587, 737.985 501.747, 742.560 497.950 C 744.306 496.501, 744.461 490.861, 742.800 489.200 C 740.637 487.037, 736.191 487.780, 734.333 490.615 M 665.080 526.544 C 666.714 530.787, 668.571 537.290, 669.206 540.995 C 670.361 547.730, 670.361 547.730, 685.430 553.467 C 757.748 580.994, 768.677 588.656, 780.332 620 C 784.960 632.445, 805.083 728.818, 823.555 827 C 826.711 843.775, 829.428 857.663, 829.592 857.862 C 831.869 860.621, 856.961 842.770, 865.290 832.465 C 885.010 808.066, 884.991 808.215, 884.996 680.151 C 885.001 558.499, 886.352 568, 869.050 568 C 862 568, 862 568, 862 563.460 C 862 544.272, 836.233 536.859, 824.730 552.739 C 817.341 562.938, 821.570 578.844, 832.805 583.116 C 835.047 583.968, 835.170 584.378, 834.512 588.766 C 833.408 596.133, 832.042 598.260, 824 605.144 C 809.215 617.800, 806 619.825, 806 616.484 C 806 609.161, 790.322 584.465, 778.419 573.038 C 762.177 557.444, 747.800 550.387, 686 527.673 C 674.725 523.529, 664.737 519.843, 663.804 519.483 C 662.390 518.936, 662.601 520.106, 665.080 526.544 M 365.490 526.020 C 361.646 527.599, 347.925 533.007, 335 538.037 C 294.022 553.983, 287.254 556.824, 280.573 560.883 C 250.975 578.864, 237.643 600.141, 228.492 644 C 215.174 707.826, 197.271 796.494, 187.755 845.750 C 184.671 861.712, 205.597 875.693, 209.471 860.259 C 209.849 858.752, 215.498 830.964, 222.024 798.509 C 257.245 623.339, 257.360 622.839, 265.183 609.500 C 276.633 589.979, 283.989 583.953, 309.500 573.193 C 328.773 565.064, 346.876 557.571, 355.741 554.053 C 363.732 550.882, 364.014 550.657, 365.046 546.641 C 366.664 540.346, 369.099 532.988, 371.179 528.108 C 373.549 522.546, 373.757 522.623, 365.490 526.020 M 467 544.777 C 467 545.260, 468.081 548.320, 469.402 551.578 C 470.723 554.835, 476.364 569.875, 481.939 585 C 487.513 600.125, 492.340 613.175, 492.665 614 C 492.990 614.825, 494.319 611.450, 495.619 606.500 C 499.295 592.497, 504.986 563.578, 504.204 562.877 C 503.817 562.530, 501.025 561.455, 498 560.488 C 488.965 557.601, 480.198 553.317, 473.404 548.469 C 469.882 545.955, 467 544.294, 467 544.777 M 561.897 549.048 C 555.408 553.488, 542.296 560.232, 536.500 562.111 C 534.300 562.825, 532.187 563.654, 531.805 563.954 C 531.222 564.412, 534.596 581.911, 540.152 607.250 C 541.994 615.651, 540.736 618.289, 561.953 561.543 C 568.912 542.932, 568.918 544.245, 561.897 549.048 M 645 620.921 C 611.455 627.749, 614.536 679.602, 648.616 681.789 C 680.923 683.862, 691.203 637.009, 661.500 623.071 C 656.737 620.836, 649.836 619.937, 645 620.921 M 642.020 636.752 C 627.043 644.276, 632.335 668, 648.990 668 C 666.246 668, 673.706 644.747, 658.983 636.851 C 654.587 634.494, 646.608 634.447, 642.020 636.752 M 580.514 674.172 C 572.523 686.013, 559.733 702.905, 552.357 711.360 C 529.633 737.409, 525.300 743.668, 524.332 751.846 C 523.618 757.871, 524.006 758.016, 530.249 754.057 C 535.325 750.838, 537.657 748.078, 560.293 718.500 C 568.711 707.500, 578.672 694.529, 582.430 689.676 C 589.261 680.853, 589.261 680.853, 587.360 673.848 C 585.460 666.844, 585.460 666.844, 580.514 674.172 M 725.917 675.601 C 723.723 678.244, 721.425 735.153, 720.379 812.750 C 719.702 863, 719.702 863, 734.851 863 C 746.314 863, 749.995 862.696, 749.981 861.750 C 749.052 799.725, 738.767 681.294, 733.786 675.250 C 732.329 673.483, 727.496 673.698, 725.917 675.601 M 601.861 733.912 C 598.648 736.513, 598.336 749.504, 601.405 752.895 C 604.769 756.612, 697.977 756.116, 700.927 752.365 C 704.065 748.377, 703.916 737.209, 700.686 734.174 C 697.271 730.967, 605.798 730.724, 601.861 733.912 M 303 826 C 303 863, 303 863, 314 863 C 325.201 863, 329.341 842.145, 323.557 814.856 C 320.742 801.576, 311.309 789, 304.162 789 C 303.300 789, 303 798.558, 303 826" stroke="none" fill="#0e3453" fill-rule="evenodd"/><path d="M 0 512.001 C 0 1024.002, 0 1024.002, 512.250 1023.751 C 1024.500 1023.500, 1024.500 1023.500, 1024.751 511.750 C 1025.002 0, 1025.002 0, 512.501 0 C 0 0, 0 0, 0 512.001 M 0.496 512.500 C 0.496 794.100, 0.610 909.151, 0.750 768.168 C 0.890 627.186, 0.890 396.786, 0.750 256.168 C 0.610 115.551, 0.496 230.900, 0.496 512.500 M 387 69.944 C 165.779 70.553, 165.489 70.557, 156.500 72.677 C 103.121 85.267, 63.917 125.754, 51.706 180.898 C 49.208 192.180, 47.596 768.618, 49.996 792.500 C 56.297 855.204, 98.858 903.233, 160 916.637 C 173.355 919.564, 813.509 919.545, 827.500 916.616 C 888.520 903.844, 931.487 853.965, 937.002 789.500 C 938.606 770.762, 937.971 511.552, 936.313 507.852 C 933.930 502.533, 910.839 485.233, 903.774 483.474 C 901.048 482.795, 901.048 482.795, 900.720 639.148 C 900.426 779.623, 900.227 796.161, 898.763 802.006 C 888.503 842.965, 860.148 871.022, 820.939 879.012 C 807.738 881.703, 185.077 882.188, 169.777 879.520 C 135.818 873.598, 104.447 846.486, 92.810 813 C 87.255 797.015, 87.625 811.440, 87.279 597.246 C 86.961 399.993, 86.961 399.993, 80.098 389.746 C 45.763 338.491, 46.189 277.873, 81.145 240.505 C 87 234.245, 87 234.245, 87 216.754 C 87 162.181, 115.631 122.872, 164.387 110.504 C 193.926 103.010, 598.995 107.433, 599.070 115.250 C 599.203 128.911, 613.999 145, 626.431 145 C 632.254 145, 632.254 145, 651.877 164.210 C 683.972 195.630, 682.236 193.490, 678.481 197.018 C 670.490 204.525, 666.505 215.481, 665.472 232.785 C 664.579 247.755, 633.295 252.454, 630.361 238.059 C 627.526 224.153, 616.223 209.743, 602.077 202 C 598.318 199.942, 592.966 195.667, 589.091 191.625 C 572.479 174.299, 551.536 165.582, 523.500 164.325 C 444.259 160.771, 397.558 211.299, 406.896 290.481 C 408.060 300.354, 408.060 300.354, 404.598 303.927 C 387.452 321.619, 394.272 370.619, 416.508 389.500 C 417.155 390.050, 418.269 392.975, 418.981 396 C 422.123 409.334, 431.233 431.627, 437.727 441.872 C 443.551 451.062, 440.854 466.014, 432.500 470.848 C 403.114 487.849, 380.409 529.811, 374.087 578.799 C 372.500 591.098, 372.500 591.098, 365.757 593.450 C 349.338 599.177, 334.340 613.228, 326.635 630.101 C 319.784 645.106, 314.356 674.988, 317.017 683.050 C 318.179 686.571, 318.115 689.397, 316.562 703.321 C 310.050 761.704, 318.722 784.823, 348.531 788.547 C 352.762 789.076, 354.774 789.928, 356.967 792.121 C 367.326 802.480, 385.805 789.059, 381.044 774.634 C 378.096 765.702, 359.331 761.761, 356.379 769.455 C 353.917 775.871, 338.468 765.798, 334.729 755.338 C 330.716 744.116, 333.411 688.425, 338.214 683.284 C 339.796 681.592, 340.739 678.046, 342.203 668.284 C 353.128 595.474, 417.297 595.539, 427.989 668.371 C 429.386 677.888, 430.388 681.797, 431.835 683.371 C 433.360 685.031, 434.038 688.035, 434.911 697 C 435.527 703.325, 436.466 712.550, 436.997 717.500 C 440.886 753.693, 427.770 782.679, 413.818 768.727 C 402.089 756.998, 383.593 773.709, 391.462 788.926 C 394.621 795.035, 410.822 797.453, 415.413 792.500 C 416.943 790.849, 419.559 789.655, 423.115 788.985 C 452.505 783.446, 461.118 758.672, 454.155 699.703 C 452.665 687.091, 452.613 684.736, 453.799 683.752 C 456.143 681.807, 452.815 656.948, 448.277 642.500 C 440.248 616.942, 422.810 598.010, 402.614 592.924 C 390.439 589.859, 404.645 534.937, 423.869 510.745 C 432.847 499.448, 432.184 499.370, 435.453 512.104 C 444.810 548.563, 471.481 618.171, 499.210 678.500 C 505.645 692.500, 505.645 692.500, 501.279 705.500 C 482.829 760.445, 478.365 863, 494.424 863 C 503 863, 503 863, 503.004 815.250 C 503.010 748.831, 502.742 750.161, 526.479 698.500 C 556.330 633.530, 588.166 551.421, 601.034 506.209 C 606.988 485.289, 636.391 534.940, 642.439 576.128 C 645.172 594.740, 645.028 595.456, 638.250 596.946 C 582.008 609.308, 584.796 696.671, 641.736 706.192 C 700.016 715.937, 726.510 627.618, 672.917 602.253 C 667.123 599.510, 667.100 599.483, 667.031 595 C 666.302 548.003, 636.729 489.511, 604.337 471 C 595.605 466.010, 591.970 450.149, 597.461 441 C 605.062 428.332, 611.076 413.786, 616.224 395.611 C 619.179 385.182, 619.771 383.952, 622.258 383.073 C 635.622 378.351, 644.416 358.649, 644.470 333.311 C 644.500 319.122, 644.500 319.122, 654.752 318.811 C 665.004 318.500, 665.004 318.500, 665.002 339.250 C 665 360, 665 360, 660.111 360 C 655.251 360, 655.218 360.022, 654.532 363.750 C 654.153 365.813, 652.534 370.087, 650.936 373.250 C 648.030 379, 648.030 379, 656.386 379 C 664.742 379, 664.742 379, 665.444 386.133 C 666.268 394.496, 669.016 403.820, 672.371 409.639 C 676.338 416.517, 657.432 434.593, 646.738 434.146 C 619.540 433.011, 617.054 472.893, 644.091 476.599 C 657.633 478.455, 668.724 467.708, 667.848 453.580 C 667.350 445.541, 686.717 425.288, 691.654 428.686 C 699.143 433.841, 704.976 435.403, 718.250 435.810 C 732.009 436.232, 738.965 467.463, 727.055 475.345 C 712.741 484.818, 715.628 508.977, 731.648 513.776 C 753.855 520.430, 770.247 494.773, 754.373 478.206 C 740.299 463.517, 748.858 436, 767.500 436 C 785.375 436, 796.078 483.475, 780.689 494.501 C 759.603 509.609, 777.862 542.413, 803.142 534.839 C 821.683 529.284, 824.396 498.021, 806.821 492.443 C 790.821 487.365, 807.364 436, 825 436 C 844.644 436, 856.609 466.360, 841.858 478.773 C 830.870 488.018, 833.448 507.086, 846.500 513.110 C 868.538 523.281, 885.978 494.358, 867.559 478.186 C 856.523 468.496, 863.125 436.275, 876.250 435.769 C 889.124 435.272, 892.965 434.203, 901.706 428.686 C 907.544 425, 929 445.648, 929 454.952 C 929 473.086, 949.825 483.555, 964.253 472.674 C 981.640 459.562, 972.418 433.217, 950.815 434.283 C 939.504 434.841, 919.217 415.302, 923.460 407.936 C 927.542 400.850, 930 391.626, 930 383.395 C 930 374.608, 955.648 371.241, 959.573 379.512 C 968.546 398.422, 997.728 392.858, 1000.630 371.683 C 1003.550 350.381, 976.030 337.845, 962.429 354.282 C 951.366 367.651, 930 357.195, 930 338.410 C 930 321.933, 947.870 309.699, 956.163 320.500 C 969.752 338.199, 989.466 338.129, 998.072 320.352 C 1009.248 297.264, 974.050 276.430, 958.774 297.092 C 948.917 310.424, 930 299.845, 930 281 C 930 262.558, 952.077 250.721, 960.115 264.853 C 968.996 280.467, 994.643 276.633, 1000.564 258.806 C 1009.328 232.421, 973.398 214.142, 959.751 238.042 C 953.567 248.873, 931.338 243.282, 930.758 230.750 C 930.199 218.677, 928.376 212.188, 923.449 204.744 C 919.639 198.986, 929.732 187.980, 938.087 188.782 C 955.632 190.468, 967.109 169.641, 956.142 156.018 C 943.234 139.984, 919.540 148.476, 919.510 169.147 C 919.493 180.305, 909.934 189.367, 903.209 184.600 C 895.662 179.251, 887.963 176.915, 875.750 176.269 C 866.796 175.795, 865.001 175.433, 865.005 174.100 C 865.007 173.220, 864.813 164.729, 864.572 155.230 C 864.134 137.961, 864.134 137.961, 868.540 133.618 C 883.479 118.889, 870.879 95.254, 850.856 100.447 C 836.548 104.159, 831.951 123.163, 842.877 133.437 C 857.489 147.179, 845.722 176, 825.500 176 C 805 176, 805 176, 805 148 C 805 127.486, 805.309 120, 806.156 120 C 822.843 120, 822.409 85.186, 805.621 77.058 C 779.711 64.516, 758.404 102.646, 782.575 118.298 C 797.714 128.102, 785.615 176, 768 176 C 749.434 176, 739.495 145.684, 753.993 133.274 C 768.039 121.251, 758.111 98.665, 739.460 100.212 C 723.603 101.527, 716.877 123.146, 729.119 133.447 C 737.953 140.880, 732.672 176.999, 722.750 177.012 C 713.681 177.024, 705.719 178.475, 701.068 180.963 C 698.835 182.159, 697.478 180.965, 671.072 154.572 C 643.415 126.929, 643.415 126.929, 639.740 128.464 C 619.672 136.849, 605.879 106.755, 625.259 96.868 C 637.054 90.850, 650 98.948, 650 112.344 C 650 129.515, 672.683 140.608, 690.500 132.150 C 714.563 120.726, 717.497 87.338, 695.568 74.487 C 686.274 69.040, 690.874 69.108, 387 69.944 M 669.017 86.851 C 659.454 91.980, 657.783 104.287, 665.642 111.698 C 673.280 118.902, 685.101 116.602, 690.023 106.956 C 696.713 93.841, 682.086 79.842, 669.017 86.851 M 168 130.474 C 129.637 141.657, 106 171.937, 106 209.901 C 106 219.886, 106 219.886, 113.656 216.397 C 150.575 199.573, 193.797 207.165, 224.075 235.794 C 230.110 241.500, 230.110 241.500, 236.509 235.344 C 281.664 191.906, 352.662 201.109, 387.622 254.931 C 390.500 259.363, 390.500 259.363, 391.272 252.431 C 401.920 156.883, 525.273 113.020, 599.054 178.548 C 608.386 186.836, 618.993 183.256, 619.004 171.816 C 619.008 167.192, 589.868 136.198, 581 131.396 C 576.445 128.929, 176.364 128.036, 168 130.474 M 545.850 220.748 C 511.565 244.469, 467.221 255.994, 438.905 248.544 C 436.309 247.861, 436.309 247.861, 435.683 256.685 C 435.339 261.538, 433.469 276.697, 431.528 290.371 C 429.588 304.045, 428 317.206, 428 319.616 C 428 324, 428 324, 423.622 324 C 416.929 324, 416.670 324.743, 417.967 340.193 C 419.591 359.537, 423.449 370.471, 430.021 374.354 C 432.395 375.755, 433.379 377.505, 435.055 383.298 C 469.250 501.515, 574.705 496.888, 601.388 376 C 610.836 333.193, 610.295 304.009, 599.495 274 C 595.879 263.952, 595.689 262.790, 595.078 247 C 594.272 226.159, 591.407 220.608, 578.500 214.880 C 566.772 209.675, 560.130 210.869, 545.850 220.748 M 146 226.629 C 80.356 234.738, 53.242 304.951, 90.443 370.500 C 108.277 401.924, 159.632 452.939, 220.588 499.784 C 231.878 508.460, 229.289 509.233, 253 490.106 C 325.697 431.465, 384.406 365.364, 380.537 346.513 C 377.321 330.843, 378.115 319.203, 383.018 310.151 C 389.596 298.006, 378.012 266.810, 360.820 250.369 C 322.580 213.799, 269.415 219.464, 235.723 263.698 C 230.240 270.896, 230.240 270.896, 223.729 262.698 C 203.018 236.624, 174.019 223.168, 146 226.629 M 974.807 246.750 C 972.166 249.826, 971.881 250.908, 973.103 253.229 C 976.005 258.739, 982.708 258.171, 984.461 252.267 C 985.879 247.491, 978.025 243.003, 974.807 246.750 M 752.579 274.261 C 747.123 289.793, 738.968 312.850, 734.458 325.500 C 717.473 373.143, 717.544 368, 733.871 368 C 745.805 368, 745.805 368, 747.962 360.750 C 753.006 343.800, 750.414 345.395, 774.069 344.685 C 799.482 343.923, 797.273 343.053, 801.150 355.347 C 805.411 368.859, 804.293 368, 817.622 368 C 831.742 368, 831.477 370.634, 820.593 338.399 C 812.885 315.567, 792.752 256.945, 789.976 249.250 C 783.802 232.130, 762.337 246.486, 752.579 274.261 M 845.572 247.673 C 837.508 268.689, 847.884 367, 858.167 367 C 876.751 367, 876.454 246.668, 857.869 246.219 C 847.598 245.971, 846.160 246.141, 845.572 247.673 M 630.666 279.250 C 630.324 287.637, 629.757 295.738, 629.405 297.250 C 628.767 300, 628.767 300, 646.883 300 C 665 300, 665 300, 665 282 C 665 255.677, 631.735 253.013, 630.666 279.250 M 774.747 277.663 C 772.961 280.789, 760.661 321.995, 761.319 322.652 C 762.582 323.916, 791.132 321.787, 790.626 320.467 C 790.354 319.760, 787.159 310.032, 783.525 298.849 C 777.136 279.192, 775.765 275.882, 774.747 277.663 M 206.526 292.950 C 205.321 295.280, 205 299.758, 205 314.250 C 205 337.092, 207.227 335, 182.911 335 C 156.382 335, 158.590 332.821, 158.193 359.398 C 157.782 386.913, 155.975 385, 182.383 385 C 207.164 385, 205 382.944, 205 406.495 C 205 432.312, 203.634 431, 230.516 431 C 256.825 431, 255 432.745, 255 407.588 C 255 383.040, 253.091 385, 277.001 385 C 302.551 385, 301.362 385.979, 301.855 364.550 C 302.549 334.432, 303.025 335, 277.117 335 C 252.892 335, 255 337.082, 255 313.151 C 255 287.737, 257.447 290, 229.969 290 C 208.051 290, 208.051 290, 206.526 292.950 M 975.185 363.684 C 973.002 364.557, 971.855 368.857, 973.150 371.315 C 976.324 377.347, 984 375.709, 984 369 C 984 364.271, 979.899 361.798, 975.185 363.684 M 385.563 380.820 C 370.580 406.244, 333.324 447.015, 298.562 476.031 C 290.346 482.889, 278.871 492.487, 273.062 497.359 C 243.738 521.956, 234.644 527.399, 226.027 525.506 C 216.762 523.471, 159.173 475.145, 122.750 438.840 C 107.898 424.036, 94.613 733.739, 107.478 794.894 C 113.445 823.262, 132.982 846.502, 159.500 856.776 C 168.217 860.153, 170 860.350, 170 857.932 C 170 853.200, 214.511 633.943, 217.999 621.490 C 226.308 591.831, 243.710 567.433, 267.944 551.468 C 278.292 544.651, 279.610 544.100, 349.500 517.403 C 367.535 510.513, 381.260 504.712, 382.318 503.530 C 383.318 502.414, 386.739 497.900, 389.921 493.500 C 397.983 482.351, 406.690 473.178, 417.104 464.862 C 428.470 455.786, 428.810 453.647, 421.040 440.129 C 415.829 431.063, 410.685 418.578, 406.976 406 C 405.760 401.875, 403.564 396.925, 402.096 395 C 398.811 390.692, 393.837 382.736, 391.357 377.820 C 389.500 374.141, 389.500 374.141, 385.563 380.820 M 568.500 472.171 C 541.053 495.744, 497.654 496.350, 463.918 473.630 C 456.960 468.945, 457.403 468.685, 455.973 478.297 C 454.577 487.680, 454.758 488.284, 462.309 499.437 C 495.409 548.325, 550.755 543.560, 578.929 489.397 C 586.053 475.701, 578.642 463.461, 568.500 472.171 M 734.333 490.615 C 731.075 495.587, 737.985 501.747, 742.560 497.950 C 744.306 496.501, 744.461 490.861, 742.800 489.200 C 740.637 487.037, 736.191 487.780, 734.333 490.615 M 665.080 526.544 C 666.714 530.787, 668.571 537.290, 669.206 540.995 C 670.361 547.730, 670.361 547.730, 685.430 553.467 C 757.748 580.994, 768.677 588.656, 780.332 620 C 784.960 632.445, 805.083 728.818, 823.555 827 C 826.711 843.775, 829.428 857.663, 829.592 857.862 C 831.869 860.621, 856.961 842.770, 865.290 832.465 C 885.010 808.066, 884.991 808.215, 884.996 680.151 C 885.001 558.499, 886.352 568, 869.050 568 C 862 568, 862 568, 862 563.460 C 862 544.272, 836.233 536.859, 824.730 552.739 C 817.341 562.938, 821.570 578.844, 832.805 583.116 C 835.047 583.968, 835.170 584.378, 834.512 588.766 C 833.408 596.133, 832.042 598.260, 824 605.144 C 809.215 617.800, 806 619.825, 806 616.484 C 806 609.161, 790.322 584.465, 778.419 573.038 C 762.177 557.444, 747.800 550.387, 686 527.673 C 674.725 523.529, 664.737 519.843, 663.804 519.483 C 662.390 518.936, 662.601 520.106, 665.080 526.544 M 365.490 526.020 C 361.646 527.599, 347.925 533.007, 335 538.037 C 294.022 553.983, 287.254 556.824, 280.573 560.883 C 250.975 578.864, 237.643 600.141, 228.492 644 C 215.174 707.826, 197.271 796.494, 187.755 845.750 C 184.671 861.712, 205.597 875.693, 209.471 860.259 C 209.849 858.752, 215.498 830.964, 222.024 798.509 C 257.245 623.339, 257.360 622.839, 265.183 609.500 C 276.633 589.979, 283.989 583.953, 309.500 573.193 C 328.773 565.064, 346.876 557.571, 355.741 554.053 C 363.732 550.882, 364.014 550.657, 365.046 546.641 C 366.664 540.346, 369.099 532.988, 371.179 528.108 C 373.549 522.546, 373.757 522.623, 365.490 526.020 M 467 544.777 C 467 545.260, 468.081 548.320, 469.402 551.578 C 470.723 554.835, 476.364 569.875, 481.939 585 C 487.513 600.125, 492.340 613.175, 492.665 614 C 492.990 614.825, 494.319 611.450, 495.619 606.500 C 499.295 592.497, 504.986 563.578, 504.204 562.877 C 503.817 562.530, 501.025 561.455, 498 560.488 C 488.965 557.601, 480.198 553.317, 473.404 548.469 C 469.882 545.955, 467 544.294, 467 544.777 M 561.897 549.048 C 555.408 553.488, 542.296 560.232, 536.500 562.111 C 534.300 562.825, 532.187 563.654, 531.805 563.954 C 531.222 564.412, 534.596 581.911, 540.152 607.250 C 541.994 615.651, 540.736 618.289, 561.953 561.543 C 568.912 542.932, 568.918 544.245, 561.897 549.048 M 645 620.921 C 611.455 627.749, 614.536 679.602, 648.616 681.789 C 680.923 683.862, 691.203 637.009, 661.500 623.071 C 656.737 620.836, 649.836 619.937, 645 620.921 M 642.020 636.752 C 627.043 644.276, 632.335 668, 648.990 668 C 666.246 668, 673.706 644.747, 658.983 636.851 C 654.587 634.494, 646.608 634.447, 642.020 636.752 M 580.514 674.172 C 572.523 686.013, 559.733 702.905, 552.357 711.360 C 529.633 737.409, 525.300 743.668, 524.332 751.846 C 523.618 757.871, 524.006 758.016, 530.249 754.057 C 535.325 750.838, 537.657 748.078, 560.293 718.500 C 568.711 707.500, 578.672 694.529, 582.430 689.676 C 589.261 680.853, 589.261 680.853, 587.360 673.848 C 585.460 666.844, 585.460 666.844, 580.514 674.172 M 725.917 675.601 C 723.723 678.244, 721.425 735.153, 720.379 812.750 C 719.702 863, 719.702 863, 734.851 863 C 746.314 863, 749.995 862.696, 749.981 861.750 C 749.052 799.725, 738.767 681.294, 733.786 675.250 C 732.329 673.483, 727.496 673.698, 725.917 675.601 M 601.861 733.912 C 598.648 736.513, 598.336 749.504, 601.405 752.895 C 604.769 756.612, 697.977 756.116, 700.927 752.365 C 704.065 748.377, 703.916 737.209, 700.686 734.174 C 697.271 730.967, 605.798 730.724, 601.861 733.912 M 303 826 C 303 863, 303 863, 314 863 C 325.201 863, 329.341 842.145, 323.557 814.856 C 320.742 801.576, 311.309 789, 304.162 789 C 303.300 789, 303 798.558, 303 826" stroke="none" fill="#ebeae4" fill-rule="evenodd"/></svg>